<?xml version="1.0" encoding="utf-8"?>
<!-- Generator: Adobe Illustrator 25.0.0, SVG Export Plug-In . SVG Version: 6.00 Build 0)  -->
<svg version="1.1" id="Layer_1" xmlns="http://www.w3.org/2000/svg" xmlns:xlink="http://www.w3.org/1999/xlink" x="0px" y="0px"
	 viewBox="0 0 582.3 460.2" style="enable-background:new 0 0 582.3 460.2;" xml:space="preserve">
<style type="text/css">
	.st0{fill:#F77F00;}
	.st1{fill:#FFFFFF;}
	.st2{fill:#CCCCCC;}
	.st3{fill:none;}
	.st4{fill:#E3BB9A;}
	.st5{fill:#FB9A78;}
	.st6{fill:#E0AB85;}
	.st7{fill:#D62828;}
	.st8{fill:none;stroke:#36474F;stroke-width:2.27;stroke-miterlimit:10;}
	.st9{fill:#EFEFEF;}
	.st10{fill:#EFEFEF;stroke:#CCCCCC;stroke-width:0.57;stroke-miterlimit:10;}
	.st11{fill:#CF6000;}
	.st12{fill:#FB7742;}
	.st13{fill:#A32519;}
	.st14{fill:#080403;}
	.st15{fill:#FEFEFE;stroke:#CCCCCC;stroke-width:0.28;stroke-miterlimit:10;}
	.st16{fill:#F79B1A;}
</style>
<path class="st0" d="M545.2,406.2c-4.2,6.8-15.6,5.5-22.2,6.8s-4.9,8.2-4.4,9.6s11.1,8.5,25.1,7.7c14-0.8,36.6-4,36.6-4v-22
	L545.2,406.2z"/>
<path class="st0" d="M468.4,428.6c-2.8,3.3-9.1,9.5-15.4,10.1c-6.3,0.6-14.2,1.9-16.9,3.4s-2.2,4.2-2,8.7s17.9,9.5,26.9,9.5
	s43.4-3.7,44.6-4.9c1.2-1.1,0-22.7,0-22.7S471.2,425.2,468.4,428.6z"/>
<path class="st1" d="M434.4,450.7l-0.1-1.1c-0.1-2.4-0.2-4.1,0.2-5.4c2.4,3.2,9.3,9.9,25.1,10.2h2c16.3,0,30.9-4.1,40.5-6.8
	c1.4-0.3,2.6-0.7,3.8-1c0.1,7.5-0.3,8.5-0.4,8.6c-1.3,1-34.6,4.8-44.5,4.8C452.2,459.9,434.7,455,434.4,450.7z"/>
<path class="st2" d="M434.7,444.8c2.7,3.4,9.7,9.6,25,9.9h2c16.3,0,30.9-4.1,40.6-6.8l3.4-0.9c0.1,6.3-0.2,7.7-0.4,8
	c-2.2,1-35,4.7-44.2,4.7c-9.6,0-26.1-5.1-26.3-8.9c-0.1-0.4-0.1-0.8-0.1-1.1C434.4,448,434.5,446.4,434.7,444.8 M434.5,443.6
	c-0.8,1.6-0.6,3.9-0.4,7.1c0.2,4.6,17.9,9.5,26.9,9.5s43.4-3.7,44.6-4.9c0.5-0.5,0.6-4.6,0.5-9.2c-8.7,2.4-25.6,8-44.5,8h-2
	C443.3,453.8,436.6,446.7,434.5,443.6L434.5,443.6z"/>
<line class="st3" x1="179.4" y1="191.2" x2="187.6" y2="202.5"/>
<path class="st4" d="M187.6,202.4l-0.2,0.1c-1.6-1.7-3.2-3.4-4.7-5.2c-1.8-1.6-3-3.7-3.5-6l0.2-0.1c2,1.2,3.7,3,4.7,5.2
	C185.4,198.3,186.5,200.4,187.6,202.4L187.6,202.4z"/>
<line class="st3" x1="174.3" y1="196.8" x2="186.5" y2="208.6"/>
<path class="st4" d="M186.4,208.6c-2-1.5-4.6-3.8-6.6-5.4c-2.4-1.6-4.3-3.8-5.6-6.4l0.1-0.1c2.6,1.2,4.9,3.1,6.6,5.4
	c1.7,1.8,4,4.5,5.6,6.4L186.4,208.6z"/>
<line class="st3" x1="162" y1="195.7" x2="168.1" y2="202.7"/>
<path class="st4" d="M168.1,202.6l-0.1,0.1c-1.2-0.9-2.4-1.9-3.6-3c-1.4-0.9-2.3-2.4-2.5-4l0.1-0.1c0.8,0.2,1.6,0.6,2.2,1.2
	C165.7,198.6,167,200.6,168.1,202.6L168.1,202.6z"/>
<line class="st3" x1="148.4" y1="192.5" x2="156.2" y2="199.2"/>
<path class="st4" d="M156.3,199.1l-0.1,0.1c-1.5-0.9-2.9-1.8-4.4-2.8c-1.6-0.8-2.9-2.2-3.5-3.9l0.1-0.1c0.9,0.1,1.8,0.5,2.5,1
	C152.9,195.2,154.6,197.1,156.3,199.1L156.3,199.1z"/>
<line class="st3" x1="141" y1="195.8" x2="145.2" y2="200.7"/>
<path class="st4" d="M145.2,200.7l-0.1,0.1c-0.9-0.7-1.7-1.4-2.5-2.1c-1-0.6-1.6-1.6-1.7-2.8l0.1-0.1c0.6,0.1,1.1,0.4,1.5,0.8
	C143.6,197.9,144.5,199.2,145.2,200.7L145.2,200.7z"/>
<line class="st3" x1="133.9" y1="204.2" x2="141.3" y2="208.7"/>
<path class="st4" d="M141.3,208.6l-0.1,0.1c-1.3-0.6-2.6-1.2-3.9-1.8c-1.4-0.5-2.6-1.4-3.4-2.7l0.1-0.1c0.8,0.1,1.5,0.2,2.2,0.6
	C137.9,205.9,139.7,207.2,141.3,208.6L141.3,208.6z"/>
<line class="st3" x1="153.2" y1="205" x2="157.7" y2="208.1"/>
<path class="st4" d="M157.8,208l-0.1,0.1c-0.9-0.3-1.7-0.7-2.5-1.1c-1-0.2-1.7-1-2-1.9l0.1-0.1c0.5-0.1,1,0,1.5,0.2
	C155.8,206.1,156.8,207,157.8,208L157.8,208z"/>
<line class="st3" x1="165.3" y1="206.9" x2="172.1" y2="212.5"/>
<path class="st4" d="M172.1,212.4l-0.1,0.1c-1.3-0.8-2.5-1.6-3.7-2.4c-1.3-0.7-2.4-1.8-3.1-3.2l0.1-0.1c0.8,0.2,1.5,0.5,2.1,0.9
	C169.1,209.2,170.7,210.8,172.1,212.4L172.1,212.4z"/>
<line class="st3" x1="173.2" y1="205.1" x2="183.2" y2="211.9"/>
<path class="st4" d="M183.2,212c-1.8-1-3.6-2-5.3-3c-1.9-0.9-3.5-2.2-4.8-3.8l0.1-0.1c2,0.6,3.8,1.6,5.3,3c1.6,1.2,3.2,2.5,4.8,3.8
	L183.2,212z"/>
<line class="st3" x1="151.2" y1="210.7" x2="160.2" y2="216.1"/>
<path class="st4" d="M160.3,215.9l-0.1,0.2c-1.7-0.6-3.3-1.3-4.9-2.1c-1.8-0.5-3.3-1.6-4.2-3.2l0.1-0.2c0.9,0,1.9,0.2,2.7,0.6
	C156.2,212.7,158.3,214.2,160.3,215.9L160.3,215.9z"/>
<line class="st3" x1="174.1" y1="217.2" x2="182.1" y2="221.3"/>
<path class="st4" d="M182.1,221.4c-1.4-0.5-2.8-1-4.2-1.6c-1.5-0.4-2.8-1.3-3.8-2.5l0.1-0.1c0.8,0,1.6,0.2,2.3,0.4
	c2,1.1,3.9,2.3,5.7,3.6L182.1,221.4z"/>
<line class="st3" x1="182.5" y1="215.6" x2="188.1" y2="219.9"/>
<path class="st4" d="M188.2,219.8l-0.1,0.1c-1.1-0.5-2.1-1.1-3.1-1.8c-1.2-0.5-2.1-1.4-2.5-2.5l0.1-0.1c0.6,0.1,1.3,0.2,1.8,0.6
	C185.7,217.3,187,218.5,188.2,219.8L188.2,219.8z"/>
<line class="st3" x1="154.7" y1="218" x2="165.3" y2="223.2"/>
<path class="st4" d="M165.3,223.1l-0.1,0.1c-1.9-0.7-3.7-1.4-5.5-2.1c-1.9-0.5-3.7-1.6-5.1-3l0.1-0.1c2,0.2,3.9,1,5.5,2.1
	C161.9,221.1,163.6,222.1,165.3,223.1L165.3,223.1z"/>
<line class="st3" x1="136" y1="215.4" x2="148.5" y2="221.9"/>
<path class="st4" d="M148.5,221.8l-0.1,0.2c-2.2-0.8-4.5-1.7-6.6-2.6c-2.4-0.6-4.4-2-5.9-4l0.1-0.2c2.4,0.1,4.8,1,6.6,2.6
	C144.6,219.1,146.6,220.4,148.5,221.8L148.5,221.8z"/>
<line class="st3" x1="308.4" y1="190.3" x2="300.1" y2="201.5"/>
<path class="st4" d="M300.2,201.6l-0.2-0.1c1.1-2,2.3-4,3.5-6c1-2.2,2.6-4,4.7-5.2l0.2,0.1c-0.6,2.3-1.8,4.4-3.5,6
	C303.4,198.1,301.8,199.9,300.2,201.6L300.2,201.6z"/>
<line class="st3" x1="313.4" y1="195.9" x2="301.3" y2="207.6"/>
<path class="st4" d="M301.2,207.5c1.6-1.9,3.9-4.5,5.6-6.4c1.7-2.3,4-4.1,6.6-5.4l0.1,0.1c-1.3,2.6-3.2,4.7-5.6,6.4
	c-1.9,1.6-4.6,3.9-6.6,5.4L301.2,207.5z"/>
<line class="st3" x1="325.8" y1="194.8" x2="319.7" y2="201.8"/>
<path class="st4" d="M319.7,201.8l-0.1-0.1c0.8-1.4,1.6-2.7,2.5-3.9c0.7-1.5,2-2.6,3.6-3l0.1,0.1c-0.1,0.8-0.4,1.6-0.8,2.3
	C323.4,198.8,321.6,200.4,319.7,201.8L319.7,201.8z"/>
<line class="st3" x1="339.3" y1="191.6" x2="331.5" y2="198.2"/>
<path class="st4" d="M331.6,198.3l-0.1-0.1c1.1-1.3,2.2-2.6,3.4-3.9c1-1.5,2.6-2.5,4.4-2.8l0.1,0.1c-0.3,0.9-0.8,1.7-1.4,2.4
	C336,195.6,333.8,197,331.6,198.3L331.6,198.3z"/>
<line class="st3" x1="346.7" y1="194.8" x2="342.6" y2="199.8"/>
<path class="st4" d="M342.6,199.8l-0.1-0.1c0.5-1,1.1-1.9,1.7-2.8c0.4-1.1,1.4-1.9,2.5-2.1l0.1,0.1c0,0.6-0.2,1.1-0.5,1.6
	C345.1,197.7,343.9,198.8,342.6,199.8L342.6,199.8z"/>
<line class="st3" x1="353.8" y1="203.3" x2="346.5" y2="207.7"/>
<path class="st4" d="M346.5,207.8l-0.1-0.1c1.1-0.9,2.3-1.8,3.4-2.6c1.1-1,2.4-1.7,3.9-1.8l0.1,0.1c-0.4,0.6-0.9,1.2-1.5,1.7
	C350.4,206,348.5,207,346.5,207.8L346.5,207.8z"/>
<line class="st3" x1="334.5" y1="204.1" x2="330" y2="207.1"/>
<path class="st4" d="M330,207.2l-0.1-0.1c0.7-0.7,1.3-1.3,2-1.9c0.6-0.8,1.5-1.2,2.5-1.1l0.1,0.1c-0.1,0.5-0.4,0.9-0.8,1.3
	C332.6,206.1,331.4,206.7,330,207.2L330,207.2z"/>
<line class="st3" x1="322.4" y1="206" x2="315.6" y2="211.5"/>
<path class="st4" d="M315.5,211.5c1-1.1,2.1-2.2,3.1-3.2c0.9-1.2,2.3-2,3.7-2.4l0.1,0.1c-0.3,0.7-0.8,1.3-1.3,1.9
	c-1.8,1.3-3.6,2.6-5.5,3.7L315.5,211.5z"/>
<line class="st3" x1="314.5" y1="204.2" x2="304.5" y2="211"/>
<path class="st4" d="M304.5,211l-0.1-0.1c1.6-1.3,3.1-2.6,4.8-3.8c1.5-1.4,3.3-2.4,5.3-3l0.1,0.1c-1.2,1.6-2.9,3-4.8,3.8
	C308.1,209,306.3,210.1,304.5,211L304.5,211z"/>
<line class="st3" x1="336.6" y1="209.8" x2="327.5" y2="215.1"/>
<path class="st4" d="M327.5,215.2l-0.1-0.2c1.4-1.1,2.8-2.3,4.2-3.3c1.3-1.3,3.1-2.1,4.9-2.1l0.1,0.2c-0.5,0.8-1.1,1.5-1.8,2.1
	C332.5,213.2,330,214.3,327.5,215.2L327.5,215.2z"/>
<line class="st3" x1="313.6" y1="216.3" x2="305.6" y2="220.4"/>
<path class="st4" d="M305.7,220.4l-0.1-0.1c1.2-0.9,2.5-1.7,3.8-2.5c1.2-1,2.7-1.6,4.2-1.6l0.1,0.1c-0.5,0.6-1,1.2-1.7,1.6
	C309.9,218.9,307.8,219.7,305.7,220.4L305.7,220.4z"/>
<line class="st3" x1="305.2" y1="214.6" x2="299.6" y2="218.9"/>
<path class="st4" d="M299.6,219l-0.1-0.1c0.8-0.9,1.7-1.7,2.5-2.5c0.7-1,1.9-1.6,3.1-1.8l0.1,0.1c-0.2,0.6-0.6,1.1-1,1.6
	C302.8,217.3,301.2,218.2,299.6,219L299.6,219z"/>
<line class="st3" x1="333" y1="217.1" x2="322.4" y2="222.2"/>
<path class="st4" d="M322.4,222.2c1.7-1,3.4-2,5.1-3c1.6-1.2,3.5-1.9,5.5-2.1l0.1,0.1c-1.4,1.4-3.2,2.5-5.1,3
	c-1.8,0.7-3.7,1.5-5.5,2.1L322.4,222.2z"/>
<line class="st3" x1="351.8" y1="214.4" x2="339.2" y2="221"/>
<path class="st4" d="M339.3,221.1l-0.1-0.2c1.9-1.4,3.9-2.7,5.9-4c1.8-1.6,4.2-2.5,6.6-2.6l0.1,0.2c-1.5,2-3.5,3.4-5.9,4
	C343.8,219.4,341.5,220.3,339.3,221.1L339.3,221.1z"/>
<path class="st5" d="M464.2,167.5l13.2-9.4c0,0,13.7,8.2,9.5,18.6c-4.3,10.4-11,24.2-11,24.2c-6.7-3.5-15.2-3.5-15.2-3.5
	c1.5-2.7,2.7-5.5,3.5-8.4c1.4-4.7,1-14.3,1-14.3L464.2,167.5z"/>
<path class="st4" d="M379.4,423.7c-14.7-3.5-22.2-2.6-30-6.9c-7.8-4.3-8-13.1-15.5-11.6c-8,1.6-14.3,5.8-21.2,3.9
	c-6.2-1.7-10.3-14.4-25.6-13.5c-34.3,2-74.3,27.9-79.6,28.2s-9-2.5-19.4-2.7s-24.8,19.2-24.8,19.2h240.2
	C403.6,440.3,394.1,427.2,379.4,423.7z"/>
<path class="st6" d="M391.1,436.6c-2.3,0.1-4.3-1.4-4.9-3.6C388.5,432.9,390.5,434.4,391.1,436.6z"/>
<path class="st6" d="M377.7,432.2c2.1,0.4,3.5,2.3,3.4,4.4C379,436.2,377.6,434.3,377.7,432.2z"/>
<path class="st6" d="M354.3,436c2-1.4,4.8-1.4,6.8,0C359.1,437.5,356.3,437.5,354.3,436z"/>
<path class="st6" d="M359.6,425.9c2.7,0.8,4.8,3,5.3,5.8C362.2,430.9,360.2,428.7,359.6,425.9z"/>
<path class="st6" d="M360.5,431.9C360.5,431.9,360.5,431.9,360.5,431.9c-1.7,0.1-3.1-1.2-3.1-2.9c0.2,0,0.3,0,0.5-0.1c0,0,0,0,0,0
	c1.7-0.1,3.1,1.2,3.1,2.9C360.8,431.8,360.6,431.8,360.5,431.9z"/>
<path class="st6" d="M342.4,415.2c2.4-0.2,4.6,1.2,5.5,3.5C345.5,418.9,343.3,417.5,342.4,415.2z"/>
<path class="st6" d="M336.8,411.4c-1.3,1.1-3.2,1-4.4-0.3c0.1-0.1,0.2-0.2,0.3-0.3c1.3-1.1,3.2-1,4.4,0.3
	C337,411.2,336.9,411.3,336.8,411.4z"/>
<path class="st6" d="M337.7,421.2c2.3-0.5,4.7,0.7,5.8,2.8C341.1,424.5,338.8,423.3,337.7,421.2z"/>
<path class="st6" d="M328.2,417c-1.6,1.4-4.1,1.4-5.7,0C324.1,415.5,326.5,415.5,328.2,417L328.2,417z"/>
<path class="st6" d="M324.2,426.7c1.4-2.4,4.1-3.8,6.9-3.7C329.7,425.4,327,426.8,324.2,426.7z"/>
<path class="st6" d="M331.4,428.4c-0.5-1.4,0.3-2,1.5-1.3C333.4,428.6,332.6,429.2,331.4,428.4z"/>
<path class="st6" d="M318.4,436.5c0.4-2.3,2.3-4.1,4.7-4.3C322.7,434.5,320.8,436.3,318.4,436.5z"/>
<path class="st6" d="M301.2,429.2c2.4-0.5,4.9,0.6,6.2,2.7C305,432.4,302.5,431.3,301.2,429.2z"/>
<path class="st6" d="M307.9,417.3c-0.2-2.2,1.2-4.3,3.4-4.9C311.5,414.7,310.1,416.7,307.9,417.3z"/>
<path class="st6" d="M303.1,408.2c1.2,1.3,1.1,3.4-0.2,4.6l-0.2-0.2c-1.2-1.3-1.1-3.4,0.2-4.6C302.9,408,303,408.1,303.1,408.2z"/>
<path class="st6" d="M296.1,400.8c2.4,1,4,3.3,4.1,5.9C297.8,405.7,296.2,403.4,296.1,400.8z"/>
<path class="st6" d="M273.1,405c2.4-1.5,5.5-1.5,7.9-0.1C278.6,406.4,275.6,406.4,273.1,405z"/>
<path class="st6" d="M277.8,408c1.6,0.1,2.8,1.5,2.7,3.1c-0.2,0-0.4,0-0.6,0c-1.6-0.1-2.8-1.5-2.7-3.1
	C277.5,408,277.6,408,277.8,408z"/>
<path class="st6" d="M289.8,420.4c1.9-0.7,4.1,0.3,4.8,2.2C292.7,423.3,290.6,422.3,289.8,420.4z"/>
<path class="st6" d="M273.6,420.6c-0.6-2.1,0.5-4.4,2.5-5.3C276.7,417.5,275.6,419.7,273.6,420.6z"/>
<path class="st6" d="M265.8,418.6c1.3-3.1,3.9-5.5,7.1-6.5C271.6,415.3,269,417.7,265.8,418.6z"/>
<path class="st6" d="M256.3,418c-0.1-2.5,1.3-4.8,3.6-5.8C260,414.7,258.6,417,256.3,418z"/>
<path class="st6" d="M287.7,434c0.3-2.5,2.1-4.5,4.5-5C291.9,431.4,290.1,433.4,287.7,434z"/>
<path class="st6" d="M278.9,433.4c1.5-2.5,4.2-4,7.1-4C284.5,431.9,281.8,433.4,278.9,433.4z"/>
<path class="st6" d="M259.8,428.1c3,0.8,5.4,3.1,6.3,6C263.1,433.3,260.7,431,259.8,428.1z"/>
<path class="st6" d="M250.5,430.5c3.3-0.4,6.6,0.7,9,3C256.2,434,252.8,432.9,250.5,430.5z"/>
<path class="st6" d="M237.7,414.4c2.6-0.5,5.2,0.6,6.6,2.7C241.8,417.6,239.1,416.6,237.7,414.4z"/>
<path class="st6" d="M231.4,422.6c2.2-0.3,4.2,1.1,4.7,3.2C234,426.1,232,424.7,231.4,422.6z"/>
<path class="st6" d="M207.6,429.7c1.8-3.1,4.8-5.2,8.2-5.9C214.1,426.9,211.1,429,207.6,429.7z"/>
<path class="st6" d="M218.5,429.6c-1,2.4-3.3,4-5.9,4C213.6,431.2,215.9,429.6,218.5,429.6z"/>
<path class="st6" d="M228,428.7c-1.4,2.3-4,3.6-6.6,3.4C222.7,429.7,225.3,428.4,228,428.7z"/>
<path class="st6" d="M186.6,429.5c0.1-2.1,1.9-3.8,4-3.8C190.5,427.8,188.8,429.5,186.6,429.5z"/>
<path class="st6" d="M182.1,434.9c3.4-1.5,7.2-1.5,10.5,0C189.3,436.4,185.5,436.4,182.1,434.9z"/>
<path class="st7" d="M543,405.5c-1.2-3.2-15.2-55.5-15.2-55.5c-5.8,13.3-16.8,82-16.8,82c-29.6,4-45.5-3.2-45.5-3.2
	s25.5-191.8,23.5-238.4c-0.5-11.9-17.2-25.9-23.9-70s23.9-77.8,26.8-77.1c2.4,0.7,4.8,1.7,7.1,2.8c-9.2,3-31.1,29-28.7,68.2
	s24.6,47,38.1,47.8c13.4,0.8,32.6-8.9,32.6-8.9c2.5,13.8,17.6,24.9,20.2,41.6c3.8,24.5-1,47.3,3.1,89.7c4.3,44.8,17.9,119,17.9,119
	C569.9,408.9,555.9,409.7,543,405.5z"/>
<path class="st0" d="M538.3,154.5l2.8-1.3c-2.1-6.6-3.5-13.5-4.3-20.4c-1-10.5-0.3-31.7-4.6-45.3c-4.2-13.6-19.4-33.3-33.2-41.3
	c-9.2,3-31.1,29-28.7,68.2s24.6,47,38.1,47.8C518.8,162.7,532.5,157.2,538.3,154.5z"/>
<path class="st7" d="M292,176.9c2.3,0,4.2,1.9,4.2,4.2V228h-105v-46.9c0-2.3,1.9-4.2,4.2-4.2H292L292,176.9z"/>
<line class="st8" x1="260.4" y1="188.9" x2="286.6" y2="188.9"/>
<line class="st8" x1="260.4" y1="194.7" x2="286.6" y2="194.7"/>
<line class="st8" x1="260.4" y1="200.5" x2="286.6" y2="200.5"/>
<line class="st8" x1="260.4" y1="206.3" x2="286.6" y2="206.3"/>
<line class="st8" x1="260.4" y1="212.1" x2="286.6" y2="212.1"/>
<line class="st8" x1="260.4" y1="218" x2="286.6" y2="218"/>
<line class="st8" x1="199.8" y1="188.9" x2="225.9" y2="188.9"/>
<line class="st8" x1="199.8" y1="194.7" x2="225.9" y2="194.7"/>
<line class="st8" x1="199.8" y1="200.5" x2="225.9" y2="200.5"/>
<line class="st8" x1="199.8" y1="206.3" x2="225.9" y2="206.3"/>
<line class="st8" x1="199.8" y1="212.1" x2="225.9" y2="212.1"/>
<line class="st8" x1="199.8" y1="218" x2="225.9" y2="218"/>
<rect x="10.1" y="266.1" class="st7" width="468.9" height="15.7"/>
<polygon class="st9" points="24.2,456.5 10.1,456.5 23.7,281.7 55.6,281.7 "/>
<path class="st7" d="M148.5,222.3v23.6h-43.8v-23.6c0-2.3,1.9-4.2,4.2-4.2h35.3C146.6,218,148.5,219.9,148.5,222.3z"/>
<polygon class="st9" points="468.7,456.5 482.8,456.5 469.2,281.7 437.4,281.7 "/>
<polygon class="st10" points="216.2,229.1 212.5,223.9 220.1,224 216.6,218.2 224,219.7 221.9,212.1 229.4,217.1 228.2,209 
	235.1,214.5 234.9,207.3 240.4,213.4 241.4,206.2 246,212.8 249,206.2 252.1,214.5 256.1,208 258.4,216.5 262.2,211.9 262.9,220.8 
	267.4,216.3 267.4,225.1 272.1,221.1 271.4,228 "/>
<ellipse class="st10" cx="243.7" cy="235.6" rx="16.8" ry="14.5"/>
<rect x="0" y="245.9" class="st9" width="493.6" height="20.2"/>
<path class="st11" d="M481.5,83c-3,8-6.3,15.8-10,23.5C474.5,98.6,477.9,90.5,481.5,83z"/>
<path class="st11" d="M511.8,104.4c-2.1,7.3-5.8,14-10.7,19.7l0,0c4.8-7.5,10.1-15.1,11.6-24.1l1.9-8.8
	C514.2,95.7,513.3,100.2,511.8,104.4z"/>
<path class="st5" d="M480,157.6c-17.9,26.5-56.5,47.7-56.5,47.7l-9.2-12.8c6.2-4.7,17.8-18.5,29.5-34.4s27-50.2,27-50.2
	s5.5,6.8,12.8,10.5c5.7,2.7,11.5,4.8,17.5,6.5C501.1,124.9,497.9,131.1,480,157.6z"/>
<path class="st0" d="M406.5,220.1c-2.2,2.8-3.9,6-5,9.4l-4.7,0.5c0,0,1.4-6.4-0.3-6.9c-1.7-0.6-13.4,6.9-13.4,6.9s-12.3,0.6-15-2.3
	c-2.7-2.8,13.8-11.1,18.8-14.5c5-3.4,27.3-21.7,27.3-21.7s3.5,5.2,4.7,6.9c1.2,1.7,6.3,7.9,6.3,7.9S411,214.4,406.5,220.1z"/>
<path class="st12" d="M476.8,161.8c-1.1,2.1-3.6,4.9-5.2,6.9c-1.8,2.2-3.9,4.7-6.4,5.9C468.7,170,473.2,166.3,476.8,161.8
	L476.8,161.8z"/>
<path class="st13" d="M520.1,170.1c-11.2,4.7-31.1,10.2-33.9,11c0.1,0.3,0.3,0.6,0.4,0.9c3.3-0.9,22.8-6.4,33.8-11
	c10-4.2,18.9-11.3,21.7-13.7c-0.1-0.3-0.2-0.7-0.3-1C539.5,158.3,530.4,165.8,520.1,170.1z"/>
<path class="st13" d="M527.6,350.2c6.2-29.5,16.3-59.7,21.6-89.9c3-18.2,6.2-36.5,6.7-55h0.3c0,18.5-2.4,37-5.1,55.3
	C546.1,291.2,538.6,321.3,527.6,350.2L527.6,350.2z"/>
<path class="st5" d="M454.3,41.5c1.5,1.7,16,9,16.4,10.7c1,3.6,2.9,6.8,5.7,9.3c3.4,2.8,15-17.4,15-17.4s-1.9-2.1-3.9-4.7l-0.2,0.3
	c0,0-9-5.6-10.3-9.5c0,0,3.3-0.4,3.7-4.8c0.2-1.4-0.3-2.8-1.2-3.8c-1.8-1.9-4.7-2-6.6-0.2l-1.2-1.1l2.6-1l-5.6-0.7L450,27.5
	c0,0,2.8,4.5,3.3,6.8C453.9,36.5,452.1,38.9,454.3,41.5z"/>
<path class="st0" d="M463.2,228.6l-5.4,0.4c0,0,3.4-8.5,0.7-7.2c-2.7,1.3-13.7,7.1-13.7,7.1s-8.9,2.7-11.7-0.9
	c-2.8-3.6,18.7-17.1,21.9-20.6s5.4-10.5,5.4-10.5c2.9,0.1,5.8,0.4,8.7,0.9c3,0.6,8.3,3.6,8.3,3.6
	C473.2,213.6,463.2,228.6,463.2,228.6z"/>
<path class="st11" d="M448,220.3c-3.9,2.8-7.5,6-10.6,9.6C440,225.7,443.7,222.4,448,220.3L448,220.3z"/>
<path class="st11" d="M376.4,229.5c2-3.2,5.8-5,9.3-6.1C382.9,225.7,379.4,227.3,376.4,229.5z"/>
<path class="st11" d="M445.9,218.3c-4.6,4.5-10.4,8.2-14.6,13.1C435.5,226.3,440.4,221.9,445.9,218.3L445.9,218.3z"/>
<path class="st13" d="M522.3,182.9c-10.7,4.5-29.3,8.1-33.1,8.9v1c3.5-0.7,22.5-4.4,33.5-9c11.3-4.7,23.6-14.6,25.2-15.9l-0.5-0.9
	C546.3,167.9,533.8,178,522.3,182.9z"/>
<path class="st13" d="M501.9,238.8c4.8,0.5,9.5,0.7,14.3,0.7h0.5v-1c-4.9,0-9.8-0.2-14.7-0.6c-4.9-0.7-13.9-3-14.8-3.2
	c-0.1,0.3-0.1,0.7-0.1,1C488.7,236,497.2,238.2,501.9,238.8z"/>
<path class="st13" d="M509.8,292.2c0.5-3.5,1-7,1.5-10.5c5.6-38.9,11.4-79.2,9.8-97.6l-1,0.1c1.6,18.3-4.5,60.3-9.8,97.4l-1.5,10.5
	c-5.6,39.2-22.9,135.2-23.9,140.9l1,0.1C487.1,426.2,504.2,331.1,509.8,292.2z"/>
<path class="st1" d="M518.8,422.5c-0.4-1.1-1.1-4.2,0.2-6.6c3,4.7,11.1,9.5,20.8,9.5h1.5c11.3-0.6,31.9-5.8,38.6-7.5v8.2
	c-2.5,0.4-23.3,3.2-36.3,3.9c-0.7,0.1-1.4,0.1-2.1,0.1C528.8,430.1,519.2,423.6,518.8,422.5z"/>
<path class="st2" d="M519.1,416.5c3.2,4.6,11.3,9.2,20.8,9.2h1.5c11.1-0.6,31.3-5.6,38.3-7.4v7.6c-3.4,0.5-23.4,3.2-36.1,4h-2.1
	c-12.5,0-21.9-6.2-22.5-7.4C518.5,420.5,518.5,418.4,519.1,416.5 M519.1,415.4c-1.8,2.6-0.8,6.2-0.5,7.2c0.5,1.3,10,7.8,23,7.8
	c0.7,0,1.4,0,2.1-0.1c14-0.8,36.6-4,36.6-4v-8.9c-6.6,1.7-27.5,7-38.9,7.6h-1.5C530,425.1,521.8,420,519.1,415.4L519.1,415.4z"/>
<path class="st14" d="M471.4,20.3l1.2,1.1c1-1,2.4-1.4,3.8-1.2c2.6,0.3,4.4,2.7,4.1,5.2c-0.4,4.4-3.6,4.8-3.6,4.8
	c1.3,3.9,10.3,9.5,10.3,9.5s2.8-3.2,2.9-10.5c0.1-7.2-2.9-15-2.9-15L471.4,20.3z"/>
<path class="st11" d="M365.2,230.6c4.7-4.3,10.3-7.4,15.9-10.4C376,223.8,370.2,227,365.2,230.6z"/>
<path class="st14" d="M452.6,30.7L452.6,30.7c-0.2-0.2-0.2-0.5,0-0.7c1.9-1.7,4.5-2.5,7-2.2c0.3,0.1,0.4,0.3,0.4,0.6
	c0,0.3-0.3,0.5-0.6,0.4c-2.2-0.3-4.5,0.4-6.1,1.9c-0.1,0.1-0.2,0.1-0.3,0.1C452.8,30.9,452.7,30.8,452.6,30.7z"/>
<rect x="148.5" y="228.1" class="st4" width="330.5" height="17.8"/>
<polygon class="st6" points="479,239.3 479,238.3 243.1,245.9 274.3,245.9 "/>
<rect x="148.5" y="228.1" class="st4" width="330.5" height="17.8"/>
<path class="st6" d="M467.6,228c-35.6,1.5-152.3,6-319.1,7.7v1c200.2-2.1,328.3-8.1,330.5-8.2V228H467.6z"/>
<path class="st6" d="M148.5,232.7c82.5-1.1,159.6-4.1,161.2-4.1v-0.5h-14c-26.1,0.9-85.1,2.8-147.2,3.6L148.5,232.7z"/>
<polygon class="st6" points="148.5,244.9 148.5,245.9 148.5,245.9 479,234.2 479,233.5 479,233.2 "/>
<circle class="st14" cx="457.6" cy="33.5" r="1.4"/>
<path class="st15" d="M455.2,41.6L455.2,41.6C455.1,41.6,455.1,41.6,455.2,41.6c-0.4,0.3-0.4,0.8-0.1,1.1
	c2.4,2.7,11.7,13.1,14.7,11.6c3-1.5,6.5-6.1,7.3-7.3c0.8-0.5,2.4-2.1,2.8-6c0.5-5,0-10.4-1.1-12.4v0c0,0,0,0,0,0
	c-0.2-0.2-0.5-0.3-0.7-0.1c-0.2,0.2-0.3,0.5-0.1,0.7c1,1.8,1.4,7,1,11.8c-0.3,2.8-1.2,4.2-1.9,4.8c-1.2-3.1-6.3-10.4-8.8-11.4
	c0-1.6,0.4-10.2,3.7-12.6c0.2-0.2,0.5-0.3,0.7-0.4l-0.8-0.7c-0.2,0.1-0.3,0.2-0.5,0.3c-3.7,2.7-4.1,11.5-4.1,13.4
	C464.6,35,457.5,40,455.2,41.6z"/>
<path class="st7" d="M433.7,31.9c-0.6,0.2-0.9,0.7-0.9,1.3c0,0.8,0.7,1.4,1.4,1.4c0.2,0,0.3,0,0.5-0.1l50.1-19.5l0,0l2.2-0.9
	l-0.1-0.5l0,0C483.6,3.3,472.5-2.4,462.1,1S446,15.5,449.3,25.9L433.7,31.9L433.7,31.9z"/>
<path class="st14" d="M471.4,20.3l1.2,1.1c1-1,2.4-1.4,3.8-1.2c2.6,0.3,4.4,2.7,4.1,5.2c-0.4,4.4,9.5,11,9.6,3.8
	c0.1-7.2-2.9-15-2.9-15L471.4,20.3z"/>
<path class="st16" d="M383.6,215.1c0.3,2.1,1,4.1,2.1,5.9c1.3,1.9,3.3,3.4,5.5,4.1c2.5-1.3,4.5-2.4,5.3-2.1c0.8,0.3,0.9,1.8,0.8,3.3
	h5.4c1-2.2,2.3-4.3,3.8-6.2c1.6-1.9,3.5-3.6,5.5-5.1c-1-2.7-2.4-5.4-4-7.8c-1.7-2.2-3.6-4.3-5.5-6.3c-6.2,5-13.1,10.5-15.6,12.2
	C385.8,213.8,384.7,214.5,383.6,215.1z"/>
<path class="st5" d="M471.8,24c2.7,4,5.8,8.5,5,6.2c0,0,3.3-0.4,3.6-4.8c0-0.2,0-0.5,0-0.7c-0.1-2.6-2.4-4.7-5-4.5L471.8,24z"/>
<path class="st14" d="M473.6,29c-0.1-2.4,0.2-4.2,1.2-5.2c0.4-0.5,1-0.8,1.6-0.9c0.3,0,0.5,0.2,0.5,0.5c0,0.3-0.2,0.5-0.5,0.5
	c-0.7,0-2.1,1.1-1.9,5c0,0.3-0.2,0.5-0.5,0.5l0,0C473.9,29.5,473.6,29.3,473.6,29z"/>
</svg>
