<?xml version="1.0" encoding="utf-8"?>
<!-- Generator: Adobe Illustrator 25.0.0, SVG Export Plug-In . SVG Version: 6.00 Build 0)  -->
<svg version="1.1" id="Layer_1" xmlns="http://www.w3.org/2000/svg" xmlns:xlink="http://www.w3.org/1999/xlink" x="0px" y="0px"
	 viewBox="0 0 611.4 408" style="enable-background:new 0 0 611.4 408;" xml:space="preserve">
<style type="text/css">
	.st0{fill:#FB9A78;}
	.st1{fill:#F77F00;}
	.st2{fill:#001B29;}
	.st3{fill:#111111;}
	.st4{fill:#D62828;}
	.st5{fill:none;stroke:#D1D1D1;stroke-width:6.24;stroke-miterlimit:10;}
	.st6{fill:none;stroke:#FB9F68;stroke-width:0.28;stroke-linecap:round;stroke-miterlimit:10;}
	.st7{fill:none;stroke:#111111;stroke-width:2.83;stroke-linecap:round;stroke-miterlimit:10;}
	.st8{fill:#003049;}
	.st9{fill:#005685;}
	.st10{fill:none;stroke:#D96F00;stroke-linecap:round;stroke-miterlimit:10;}
	.st11{fill:#FFFFFF;}
	.st12{fill:#E0AB85;}
	.st13{fill:#E3BB9A;}
	.st14{fill:#D0D0D0;stroke:#EEEEEE;stroke-width:1.42;stroke-miterlimit:10;}
	.st15{fill:#ACADAE;}
	.st16{fill:#D0D0D0;}
	.st17{fill:#D96F00;}
	.st18{fill:#8FC2FF;}
	.st19{fill:none;stroke:#D96F00;stroke-width:1.42;stroke-linecap:round;stroke-miterlimit:10;}
	.st20{fill:#FCBF49;}
	.st21{fill:#C7E1FF;}
</style>
<polygon class="st0" points="100.8,239.8 105.1,240.1 113.3,244.8 107.2,248.6 101.4,246.1 "/>
<path class="st1" d="M113.2,244.6l-10.9-4l-0.4,5.8c-1.4,1.3-9.6,0.8-9.6,0.8l-0.6-17.6h3.2c1.9,5.9,18.7,8.6,18.7,8.6L113.2,244.6z
	"/>
<rect x="118.4" y="283.6" transform="matrix(0.7663 -0.6425 0.6425 0.7663 -154.5509 144.803)" class="st0" width="6.7" height="2.4"/>
<path class="st2" d="M125.4,283.2c0.8-0.7,2-0.6,2.7,0.2l0.4,0.5l0,0l-7,5.9l0,0l-1.7-2l0,0L125.4,283.2L125.4,283.2z"/>
<path class="st2" d="M111.4,290v0.7l0,0h-9.2l0,0v-2.6l0,0h7.3C110.6,288,111.4,289,111.4,290z"/>
<path d="M189.7,181.9L189.7,181.9c2.3,0,4.2,1.9,4.2,4.2v117.8l0,0h-8.4l0,0V186.1l0,0C185.5,183.8,187.4,181.9,189.7,181.9
	L189.7,181.9L189.7,181.9z"/>
<polygon class="st3" points="151.7,292.4 144.5,297 114.4,293.8 144.5,270.9 "/>
<path d="M30,273v41.5h53.7v4.6h70.7v-29.3c-8.4-65.3-37.5-100.9-37.5-100.9H36.3c-2.6,0-4.7,2.1-4.7,4.7V273H30z M41,198.2h73
	c22,43.3,30.7,77.9,33.5,91.5h-45.1L95.7,273H41V198.2z"/>
<path class="st4" d="M5,258.6v74.8h139.9c-1.6-3.4-2.4-7.1-2.4-10.9c0-14.2,11.5-25.7,25.7-25.7s25.7,11.5,25.7,25.7h8.5
	c0-0.3,0-0.5,0-0.8c0-19.1-15.8-34.5-35.2-34.5c-13.2-0.1-25.4,7.3-31.5,19H69.1l-32.3-47.7H5V258.6z"/>
<circle cx="168.2" cy="322.5" r="25.7"/>
<circle class="st5" cx="168.2" cy="322.5" r="10.8"/>
<circle cx="25.7" cy="322.5" r="25.7"/>
<circle class="st5" cx="25.7" cy="322.5" r="10.8"/>
<rect x="204.5" y="245.2" class="st4" width="44.5" height="4.6"/>
<path d="M204.5,191.1v58.4c0,2.3-1.8,4.1-4.1,4.1l0,0c-2.3,0-4.1-1.8-4.1-4.1v-58.4c0-2.3,1.8-4.1,4.1-4.1l0,0
	C202.6,187.1,204.5,188.9,204.5,191.1z"/>
<path class="st6" d="M112.5,245.9c-2.4-0.8-4.7-1.9-4.7-1.9"/>
<path class="st6" d="M111.1,247c-1.4-0.6-2.7-1.3-4-2.1"/>
<path class="st6" d="M109.9,248.6c-0.4-0.1-3.9-2.3-3.9-2.3"/>
<path d="M77.3,211.8c0,1.9,0.9,3.5,2,3.5c0.2,0,0.4-0.1,0.6-0.2c-1-0.1-1.8-1.5-2-3.4c-0.2-1.1,0-2.2,0.6-3.2
	C77.6,209.4,77.2,210.6,77.3,211.8z"/>
<rect x="102.3" y="285.7" class="st0" width="6.7" height="2.4"/>
<path class="st0" d="M80.4,216.1v2.4h4.3v-2.8c1.4-1.2,2.1-2.9,2.1-4.7c0-3.1-2-5.6-4.5-5.6s-4.5,2.5-4.5,5.6
	C77.8,213.1,78.8,215,80.4,216.1z"/>
<path class="st0" d="M110.6,243.8c0,0,4.5,2.1,6.8,3.2s2-0.8,2-0.8c2.3,1.5,2.1-1,2.1-1c2,0.8,1.3-4.1,0-5.7s-7.8-1.3-7.8-1.3
	L110.6,243.8z"/>
<path class="st3" d="M53.6,238.9L53.6,238.9c-0.4-2.8,1.5-5.3,4.3-5.7l0,0l0,0c2.6-0.4,5.1,1.5,5.4,4.1l4.7,33.1l-9.3,2.6
	L53.6,238.9z"/>
<polyline class="st7" points="105.2,251 113.3,245.6 121.4,240.1 "/>
<path class="st1" d="M81.5,217.4c7.7,0,13.9,6.2,13.9,13.9v24.2c0,1.3-1,2.3-2.3,2.3H69.9c-1.3,0-2.3-1-2.3-2.3v-24.2
	C67.6,223.6,73.8,217.4,81.5,217.4L81.5,217.4C81.4,217.4,81.4,217.4,81.5,217.4z"/>
<line class="st7" x1="113.3" y1="245.6" x2="136.5" y2="281.2"/>
<path class="st8" d="M102.8,255.1c-4-0.8-35.2,0-35.2,0c-0.2,4.9,1.4,10.1,4.7,10.4c3.3,0.3,14.9,0,18.4,0
	c5.6,0,10.5,20.4,10.5,20.4l8.1-0.1l-0.7-8.1l8.8,9l6.7-5.5C111.1,258.6,106.9,256,102.8,255.1z"/>
<path class="st3" d="M91.2,265.5c2,0,3.7,1.7,3.7,3.7l0,0l0,0c0,2-1.7,3.7-3.7,3.7H58.7l0,0v-4.4l0,0c0-1.6,1.3-2.9,2.9-2.9
	L91.2,265.5L91.2,265.5z"/>
<path class="st9" d="M109,278.5c-1.1-6.3-3.3-22.5-11.3-23.5V255C106.4,254.9,108.3,272,109,278.5L109,278.5z"/>
<path class="st1" d="M81.8,203.6c-3.5,0-6.3,2.8-6.3,6.4h12.7C88.2,206.6,85.3,203.6,81.8,203.6L81.8,203.6z"/>
<path class="st10" d="M101.8,240.5c-3.6-0.8-7.2-1.9-10.7-3.2c-7.2-2.9-10.5-12.8-10.5-12.8"/>
<path class="st10" d="M94.9,248c-1.9,0.2-3.9,0.2-5.8-0.2c-12.1-1.6-15.9-10.6-15.9-10.6"/>
<path class="st10" d="M95.7,238.8c0.4-3.6,0-7.3-1.2-10.7"/>
<circle cx="85" cy="211.4" r="0.6"/>
<circle cx="82.5" cy="211.4" r="0.6"/>
<path class="st11" d="M82.5,213.6L82.5,213.6c0,0.4,0.5,0.7,1.2,0.7s1.2-0.3,1.2-0.6v-0.1c-0.4,0.1-0.8,0.1-1.2,0.1
	C83.3,213.8,82.9,213.6,82.5,213.6z"/>
<rect x="280.8" y="243.4" class="st12" width="2.7" height="8.4"/>
<rect x="208.4" y="243.4" class="st12" width="2.7" height="8.4"/>
<rect x="244.6" y="243.5" class="st12" width="2.7" height="8.4"/>
<rect x="205.3" y="241.6" class="st13" width="81.5" height="3.9"/>
<polygon class="st12" points="286.8,242.1 205.3,245.1 205.3,245.5 205.3,245.5 286.8,242.4 286.8,242.1 "/>
<path class="st12" d="M255.3,241.6c-11.7,0.8-36.9,2.4-50.1,2.8v0.2c14.7-0.4,44.8-2.4,53.7-3H255.3z"/>
<path class="st12" d="M221.8,242.8c-1.3,0.4-10.4,0.9-16.5,1.1v0.2c2.7-0.1,16.3-0.7,16.8-1.3v-0.1c0-0.2,0-0.5-8.5-0.3
	c-4.1,0.1-8.3,0.2-8.4,0.2v0.2C211.4,242.6,220.4,242.5,221.8,242.8z"/>
<path class="st12" d="M219,245.6h5.7c7.8-0.3,18.2-0.8,23-1.2c8.2-0.6,38.7-0.9,39-0.9v-0.3c-0.3,0-30.9,0.3-39.1,0.9
	C241.6,244.6,226.3,245.2,219,245.6z"/>
<path class="st12" d="M243.6,245.6h1.2c5.8-1,18.7-1.1,26.1-0.8c6.7,0.2,13.9-0.3,15.9-0.4v-0.2c-2,0.2-9.1,0.7-15.9,0.4
	C263.8,244.2,248.8,244.4,243.6,245.6z"/>
<rect x="205.3" y="241.6" class="st13" width="81.5" height="3.9"/>
<polygon class="st12" points="286.8,242.1 205.3,245.1 205.3,245.5 205.3,245.5 286.8,242.4 286.8,242.1 "/>
<path class="st12" d="M255.3,241.6c-11.7,0.8-36.9,2.4-50.1,2.8v0.2c14.7-0.4,44.8-2.4,53.7-3H255.3z"/>
<path class="st12" d="M221.8,242.8c-1.3,0.4-10.4,0.9-16.5,1.1v0.2c2.7-0.1,16.3-0.7,16.8-1.3v-0.1c0-0.2,0-0.5-8.5-0.3
	c-4.1,0.1-8.3,0.2-8.4,0.2v0.2C211.4,242.6,220.4,242.5,221.8,242.8z"/>
<path class="st12" d="M219,245.6h5.7c7.8-0.3,18.2-0.8,23-1.2c8.2-0.6,38.7-0.9,39-0.9v-0.3c-0.3,0-30.9,0.3-39.1,0.9
	C241.6,244.6,226.3,245.2,219,245.6z"/>
<path class="st12" d="M243.6,245.6h1.2c5.8-1,18.7-1.1,26.1-0.8c6.7,0.2,13.9-0.3,15.9-0.4v-0.2c-2,0.2-9.1,0.7-15.9,0.4
	C263.8,244.2,248.8,244.4,243.6,245.6z"/>
<rect x="205.3" y="249.9" class="st13" width="81.5" height="3.9"/>
<polygon class="st12" points="205.3,253.4 286.8,250.2 286.8,250 286.8,250 205.3,253.1 205.3,253.2 "/>
<path class="st12" d="M236.7,253.8c11.7-0.8,36.9-2.4,50.1-2.8v-0.2c-14.7,0.4-44.8,2.4-53.7,3H236.7z"/>
<path class="st12" d="M270.3,252.6c1.3-0.4,10.4-0.9,16.5-1.1v-0.2c-2.7,0.1-16.3,0.7-16.8,1.3v0.1c0,0.2,0,0.5,8.5,0.3
	c4.1-0.1,8.3-0.2,8.4-0.2v-0.3C280.7,252.8,271.6,253,270.3,252.6z"/>
<path class="st12" d="M273.1,249.9h-5.7c-7.8,0.3-18.2,0.8-23,1.2c-8.2,0.6-38.7,0.9-39,0.9v0.2c0.3,0,30.9-0.3,39.1-0.9
	C250.4,250.8,265.8,250.1,273.1,249.9z"/>
<path class="st12" d="M248.5,249.9h-1.2c-5.8,1-18.7,1.1-26.1,0.8c-6.7-0.2-13.9,0.3-15.9,0.4v0.2c2-0.2,9.1-0.6,15.9-0.4
	C228.3,251.1,243.3,251.1,248.5,249.9z"/>
<rect x="208.6" y="230.8" class="st12" width="2.7" height="8.4"/>
<rect x="281" y="230.8" class="st12" width="2.7" height="8.4"/>
<rect x="244.8" y="230.9" class="st12" width="2.7" height="8.4"/>
<rect x="205.3" y="229.1" class="st13" width="81.5" height="3.9"/>
<polygon class="st12" points="205.3,229.5 286.8,232.6 286.8,232.9 286.8,232.9 205.3,229.8 205.3,229.6 "/>
<path class="st12" d="M236.7,229.1c11.7,0.8,36.9,2.4,50.1,2.8v0.2c-14.7-0.4-44.8-2.4-53.7-3H236.7z"/>
<path class="st12" d="M270.3,230.1c1.3,0.4,10.4,0.9,16.5,1.1v0.3c-2.7-0.1-16.3-0.7-16.8-1.3v-0.1c0-0.2,0-0.5,8.5-0.3
	c4.1,0.1,8.3,0.2,8.4,0.2v0.2C280.7,230.1,271.6,229.9,270.3,230.1z"/>
<path class="st12" d="M273.1,233h-5.7c-7.8-0.3-18.2-0.8-23-1.2c-8.2-0.6-38.7-0.9-39-0.9v-0.2c0.3,0,30.9,0.3,39.1,0.9
	C250.4,232,265.8,232.6,273.1,233z"/>
<path class="st12" d="M248.5,233h-1.2c-5.8-1-18.7-1.1-26.1-0.8c-6.7,0.2-13.9-0.3-15.9-0.4v-0.2c2,0.2,9.1,0.6,15.9,0.4
	C228.3,231.6,243.3,231.6,248.5,233z"/>
<rect x="205.3" y="229.1" class="st13" width="81.5" height="3.9"/>
<polygon class="st12" points="205.3,229.5 286.8,232.6 286.8,232.9 286.8,232.9 205.3,229.8 205.3,229.6 "/>
<path class="st12" d="M236.7,229.1c11.7,0.8,36.9,2.4,50.1,2.8v0.2c-14.7-0.4-44.8-2.4-53.7-3H236.7z"/>
<path class="st12" d="M270.3,230.1c1.3,0.4,10.4,0.9,16.5,1.1v0.3c-2.7-0.1-16.3-0.7-16.8-1.3v-0.1c0-0.2,0-0.5,8.5-0.3
	c4.1,0.1,8.3,0.2,8.4,0.2v0.2C280.7,230.1,271.6,229.9,270.3,230.1z"/>
<path class="st12" d="M273.1,233h-5.7c-7.8-0.3-18.2-0.8-23-1.2c-8.2-0.6-38.7-0.9-39-0.9v-0.2c0.3,0,30.9,0.3,39.1,0.9
	C250.4,232,265.8,232.6,273.1,233z"/>
<path class="st12" d="M248.5,233h-1.2c-5.8-1-18.7-1.1-26.1-0.8c-6.7,0.2-13.9-0.3-15.9-0.4v-0.2c2,0.2,9.1,0.6,15.9,0.4
	C228.3,231.6,243.3,231.6,248.5,233z"/>
<rect x="205.3" y="237.2" class="st13" width="81.5" height="3.9"/>
<polygon class="st12" points="286.8,240.8 205.3,237.6 205.3,237.4 205.3,237.4 286.8,240.5 286.8,240.6 "/>
<path class="st12" d="M255.3,241.1c-11.7-0.8-36.9-2.4-50.1-2.8v-0.2c14.7,0.4,44.8,2.4,53.7,3H255.3z"/>
<path class="st12" d="M221.8,240c-1.3-0.4-10.4-0.9-16.5-1.1v-0.2c2.7,0.1,16.3,0.7,16.8,1.3v0.1c0,0.2,0,0.5-8.5,0.3
	c-4.1-0.1-8.3-0.2-8.4-0.2V240C211.4,240.1,220.4,240.4,221.8,240z"/>
<path class="st12" d="M219,237.2h5.7c7.8,0.3,18.2,0.8,23,1.2c8.2,0.6,38.7,0.9,39,0.9v0.2c-0.3,0-30.9-0.3-39.1-0.9
	C241.6,238.1,226.3,237.6,219,237.2z"/>
<path class="st12" d="M243.6,237.2h1.2c5.8,1,18.7,1.1,26.1,0.8c6.7-0.2,13.9,0.3,15.9,0.4v0.2c-2-0.2-9.1-0.7-15.9-0.4
	C263.8,238.6,248.8,238.5,243.6,237.2z"/>
<rect x="208.6" y="205.6" class="st12" width="2.7" height="8.4"/>
<rect x="281" y="205.6" class="st12" width="2.7" height="8.4"/>
<rect x="244.8" y="205.6" class="st12" width="2.7" height="8.4"/>
<rect x="205.3" y="211.9" class="st13" width="81.5" height="3.9"/>
<polygon class="st12" points="205.3,215.4 286.8,212.2 286.8,212 286.8,212 205.3,215.1 205.3,215.2 "/>
<path class="st12" d="M236.7,215.8c11.7-0.8,36.9-2.4,50.1-2.8v-0.2c-14.7,0.4-44.8,2.4-53.7,3H236.7z"/>
<path class="st12" d="M270.3,214.6c1.3-0.4,10.4-0.9,16.5-1.1v-0.2c-2.7,0.1-16.3,0.7-16.8,1.3v0.1c0,0.2,0,0.5,8.5,0.3
	c4.1-0.1,8.3-0.2,8.4-0.2v-0.3C280.7,214.8,271.6,215,270.3,214.6z"/>
<path class="st12" d="M273.1,211.9h-5.7c-7.8,0.3-18.2,0.8-23,1.2c-8.2,0.6-38.7,0.9-39,0.9v0.2c0.3,0,30.9-0.3,39.1-0.9
	C250.4,212.8,265.8,212.1,273.1,211.9z"/>
<path class="st12" d="M248.5,211.9h-1.2c-5.8,1-18.7,1.1-26.1,0.8c-6.7-0.2-13.9,0.3-15.9,0.4v0.2c2-0.2,9.1-0.7,15.9-0.4
	C228.3,213.1,243.3,213.1,248.5,211.9z"/>
<rect x="205.3" y="211.9" class="st13" width="81.5" height="3.9"/>
<polygon class="st12" points="205.3,215.4 286.8,212.2 286.8,212 286.8,212 205.3,215.1 205.3,215.2 "/>
<path class="st12" d="M236.7,215.8c11.7-0.8,36.9-2.4,50.1-2.8v-0.2c-14.7,0.4-44.8,2.4-53.7,3H236.7z"/>
<path class="st12" d="M270.3,214.6c1.3-0.4,10.4-0.9,16.5-1.1v-0.2c-2.7,0.1-16.3,0.7-16.8,1.3v0.1c0,0.2,0,0.5,8.5,0.3
	c4.1-0.1,8.3-0.2,8.4-0.2v-0.3C280.7,214.8,271.6,215,270.3,214.6z"/>
<path class="st12" d="M273.1,211.9h-5.7c-7.8,0.3-18.2,0.8-23,1.2c-8.2,0.6-38.7,0.9-39,0.9v0.2c0.3,0,30.9-0.3,39.1-0.9
	C250.4,212.8,265.8,212.1,273.1,211.9z"/>
<path class="st12" d="M248.5,211.9h-1.2c-5.8,1-18.7,1.1-26.1,0.8c-6.7-0.2-13.9,0.3-15.9,0.4v0.2c2-0.2,9.1-0.7,15.9-0.4
	C228.3,213.1,243.3,213.1,248.5,211.9z"/>
<rect x="205.3" y="203.6" class="st13" width="81.5" height="3.9"/>
<polygon class="st12" points="286.8,204.1 205.3,207.1 205.3,207.5 205.3,207.5 286.8,204.4 286.8,204.1 "/>
<path class="st12" d="M255.3,203.6c-11.7,0.8-36.9,2.4-50.1,2.8v0.2c14.7-0.4,44.8-2.4,53.7-3H255.3z"/>
<path class="st12" d="M221.8,204.8c-1.3,0.4-10.4,0.9-16.5,1.1v0.2c2.7-0.1,16.3-0.7,16.8-1.3v-0.1c0-0.2,0-0.5-8.5-0.3
	c-4.1,0.1-8.3,0.2-8.4,0.2v0.2C211.4,204.6,220.4,204.5,221.8,204.8z"/>
<path class="st12" d="M219,207.6h5.7c7.8-0.3,18.2-0.8,23-1.2c8.2-0.6,38.7-0.9,39-0.9v-0.3c-0.3,0-30.9,0.3-39.1,0.9
	C241.6,206.6,226.3,207.2,219,207.6z"/>
<path class="st12" d="M243.6,207.6h1.2c5.8-1,18.7-1.1,26.1-0.9c6.7,0.2,13.9-0.3,15.9-0.4v-0.2c-2,0.1-9.1,0.6-15.9,0.4
	C263.8,206.2,248.8,206.4,243.6,207.6z"/>
<rect x="208.6" y="218.1" class="st13" width="2.7" height="8.4"/>
<rect x="281" y="218.1" class="st13" width="2.7" height="8.4"/>
<rect x="244.8" y="218.1" class="st13" width="2.7" height="8.4"/>
<rect x="205.3" y="216.4" class="st13" width="81.5" height="3.9"/>
<polygon class="st12" points="205.3,216.8 286.8,219.9 286.8,220.1 286.8,220.1 205.3,217 205.3,216.9 "/>
<path class="st12" d="M236.7,216.4c11.7,0.8,36.9,2.4,50.1,2.8v0.2c-14.7-0.4-44.8-2.4-53.7-3H236.7z"/>
<path class="st12" d="M270.3,217.5c1.3,0.4,10.4,0.9,16.5,1.1v0.2c-2.7-0.1-16.3-0.7-16.8-1.3v-0.1c0-0.2,0-0.5,8.5-0.3
	c4.1,0.1,8.3,0.2,8.4,0.2v0.3C280.7,217.4,271.6,217.1,270.3,217.5z"/>
<path class="st12" d="M273.1,220.2h-5.7c-7.8-0.3-18.2-0.8-23-1.2c-8.2-0.6-38.7-0.9-39-0.9V218c0.3,0,30.9,0.3,39.1,0.9
	C250.4,219.2,265.8,220,273.1,220.2z"/>
<path class="st12" d="M248.5,220.2h-1.2c-5.8-1-18.7-1.1-26.1-0.8c-6.7,0.2-13.9-0.3-15.9-0.4v-0.2c2,0.2,9.1,0.7,15.9,0.4
	C228.3,219,243.3,219,248.5,220.2z"/>
<rect x="205.3" y="216.4" class="st12" width="81.5" height="3.9"/>
<polygon class="st13" points="205.3,216.8 286.8,219.9 286.8,220.1 286.8,220.1 205.3,217 205.3,216.9 "/>
<path class="st13" d="M236.7,216.4c11.7,0.8,36.9,2.4,50.1,2.8v0.2c-14.7-0.4-44.8-2.4-53.7-3H236.7z"/>
<path class="st13" d="M270.3,217.5c1.3,0.4,10.4,0.9,16.5,1.1v0.2c-2.7-0.1-16.3-0.7-16.8-1.3v-0.1c0-0.2,0-0.5,8.5-0.3
	c4.1,0.1,8.3,0.2,8.4,0.2v0.3C280.7,217.4,271.6,217.1,270.3,217.5z"/>
<path class="st13" d="M273.1,220.2h-5.7c-7.8-0.3-18.2-0.8-23-1.2c-8.2-0.6-38.7-0.9-39-0.9V218c0.3,0,30.9,0.3,39.1,0.9
	C250.4,219.2,265.8,220,273.1,220.2z"/>
<path class="st13" d="M248.5,220.2h-1.2c-5.8-1-18.7-1.1-26.1-0.8c-6.7,0.2-13.9-0.3-15.9-0.4v-0.2c2,0.2,9.1,0.7,15.9,0.4
	C228.3,219,243.3,219,248.5,220.2z"/>
<rect x="205.3" y="224.6" class="st12" width="81.5" height="3.9"/>
<polygon class="st13" points="286.8,228.1 205.3,224.9 205.3,224.6 205.3,224.6 286.8,227.8 286.8,228 "/>
<path class="st13" d="M255.3,228.5c-11.7-0.8-36.9-2.4-50.1-2.8v-0.2c14.7,0.4,44.8,2.4,53.7,3H255.3z"/>
<path class="st13" d="M221.8,227.4c-1.3-0.4-10.4-0.9-16.5-1.1v-0.2c2.7,0.1,16.3,0.7,16.8,1.3v0.1c0,0.2,0,0.5-8.5,0.3
	c-4.1-0.1-8.3-0.2-8.4-0.2v-0.2C211.4,227.5,220.4,227.6,221.8,227.4z"/>
<path class="st13" d="M219,224.5h5.7c7.8,0.3,18.2,0.8,23,1.2c8.2,0.6,38.7,0.9,39,0.9v0.3c-0.3,0-30.9-0.3-39.1-0.9
	C241.6,225.5,226.3,224.9,219,224.5z"/>
<path class="st13" d="M243.6,224.6h1.2c5.8,1,18.7,1.1,26.1,0.8c6.7-0.2,13.9,0.3,15.9,0.4v0.2c-2-0.2-9.1-0.6-15.9-0.4
	C263.8,225.9,248.8,225.8,243.6,224.6z"/>
<rect x="208.6" y="192.9" class="st13" width="2.7" height="8.4"/>
<rect x="281" y="192.9" class="st13" width="2.7" height="8.4"/>
<rect x="244.8" y="193" class="st13" width="2.7" height="8.4"/>
<rect x="205.3" y="191.1" class="st13" width="81.5" height="3.9"/>
<polygon class="st12" points="205.3,191.6 286.8,194.6 286.8,195 286.8,195 205.3,191.8 "/>
<path class="st12" d="M236.7,191.1c11.7,0.8,36.9,2.4,50.1,2.8v0.2c-14.7-0.4-44.8-2.4-53.7-3H236.7z"/>
<path class="st12" d="M270.3,192.2c1.3,0.4,10.4,0.9,16.5,1.1v0.2c-2.7-0.1-16.3-0.7-16.8-1.3v-0.1c0-0.2,0-0.5,8.5-0.3
	c4.1,0.1,8.3,0.2,8.4,0.2v0.2C280.7,192.1,271.6,192,270.3,192.2z"/>
<path class="st12" d="M273.1,195.1h-5.7c-7.8-0.3-18.2-0.8-23-1.2c-8.2-0.6-38.7-0.9-39-0.9v-0.2c0.3,0,30.9,0.3,39.1,0.9
	C250.4,194.1,265.8,194.8,273.1,195.1z"/>
<path class="st12" d="M248.5,195.1h-1.2c-5.8-1-18.7-1.1-26.1-0.8c-6.7,0.2-13.9-0.3-15.9-0.5v-0.2c2,0.1,9.1,0.6,15.9,0.4
	C228.3,193.8,243.3,193.8,248.5,195.1z"/>
<rect x="205.3" y="191.1" class="st12" width="81.5" height="3.9"/>
<polygon class="st13" points="205.3,191.6 286.8,194.6 286.8,195 286.8,195 205.3,191.8 "/>
<path class="st13" d="M236.7,191.1c11.7,0.8,36.9,2.4,50.1,2.8v0.2c-14.7-0.4-44.8-2.4-53.7-3H236.7z"/>
<path class="st13" d="M270.3,192.2c1.3,0.4,10.4,0.9,16.5,1.1v0.2c-2.7-0.1-16.3-0.7-16.8-1.3v-0.1c0-0.2,0-0.5,8.5-0.3
	c4.1,0.1,8.3,0.2,8.4,0.2v0.2C280.7,192.1,271.6,192,270.3,192.2z"/>
<path class="st13" d="M273.1,195.1h-5.7c-7.8-0.3-18.2-0.8-23-1.2c-8.2-0.6-38.7-0.9-39-0.9v-0.2c0.3,0,30.9,0.3,39.1,0.9
	C250.4,194.1,265.8,194.8,273.1,195.1z"/>
<path class="st13" d="M248.5,195.1h-1.2c-5.8-1-18.7-1.1-26.1-0.8c-6.7,0.2-13.9-0.3-15.9-0.5v-0.2c2,0.1,9.1,0.6,15.9,0.4
	C228.3,193.8,243.3,193.8,248.5,195.1z"/>
<rect x="205.3" y="199.2" class="st12" width="81.5" height="3.9"/>
<polygon class="st13" points="286.8,202.9 205.3,199.6 205.3,199.4 205.3,199.4 286.8,202.6 286.8,202.8 "/>
<path class="st13" d="M255.3,203.2c-11.7-0.8-36.9-2.4-50.1-2.8v-0.2c14.8,0.3,44.8,2.3,53.8,2.9L255.3,203.2z"/>
<path class="st13" d="M221.8,202.1c-1.3-0.4-10.4-0.9-16.5-1.1v-0.2c2.7,0.1,16.3,0.7,16.8,1.3v0.1c0,0.2,0,0.5-8.5,0.3
	c-4.1-0.1-8.3-0.2-8.4-0.2v-0.2C211.4,202.1,220.4,202.4,221.8,202.1z"/>
<path class="st13" d="M219,199.2h5.7c7.8,0.3,18.2,0.8,23,1.2c8.2,0.6,38.7,0.9,39,0.9v0.2c-0.3,0-30.9-0.3-39.1-0.9
	C241.6,200.2,226.3,199.6,219,199.2z"/>
<path class="st13" d="M243.6,199.2h1.2c5.8,1,18.7,1.1,26.1,0.8c6.7-0.2,13.9,0.3,15.9,0.4v0.3c-2-0.1-9.1-0.6-15.9-0.4
	C263.8,200.6,248.8,200.6,243.6,199.2z"/>
<g id="Wheels_Group">
	<g id="Wheel">
		<circle cx="383.8" cy="319.8" r="29.3"/>
		<circle class="st14" cx="383.8" cy="319.8" r="12.8"/>
		<circle class="st15" cx="384.1" cy="319.8" r="4.6"/>
		<circle class="st15" cx="383.6" cy="311.5" r="1.5"/>
		<circle class="st15" cx="375.5" cy="319.7" r="1.5"/>
		<circle class="st15" cx="392.1" cy="319.5" r="1.5"/>
		<circle class="st15" cx="383.9" cy="328" r="1.5"/>
		<circle class="st15" cx="377.9" cy="314" r="1.5"/>
		<circle class="st15" cx="377.9" cy="325.5" r="1.5"/>
		<circle class="st15" cx="389.5" cy="313.8" r="1.5"/>
		<circle class="st15" cx="389.7" cy="325.5" r="1.5"/>
	</g>
	<g id="Wheel-2">
		<circle cx="557.6" cy="319.8" r="29.3"/>
		<circle class="st14" cx="557.6" cy="319.8" r="12.8"/>
		<circle class="st15" cx="557.9" cy="319.8" r="4.6"/>
		<circle class="st15" cx="557.4" cy="311.5" r="1.5"/>
		<circle class="st15" cx="549.4" cy="319.7" r="1.5"/>
		<circle class="st15" cx="565.9" cy="319.5" r="1.5"/>
		<circle class="st15" cx="557.7" cy="328" r="1.5"/>
		<circle class="st15" cx="551.7" cy="314" r="1.5"/>
		<circle class="st15" cx="551.7" cy="325.5" r="1.5"/>
		<circle class="st15" cx="563.3" cy="313.8" r="1.5"/>
		<circle class="st15" cx="563.5" cy="325.5" r="1.5"/>
	</g>
	<g id="Wheel-3">
		<circle cx="296.6" cy="319.8" r="29.3"/>
		<circle class="st14" cx="296.6" cy="319.8" r="12.8"/>
		<circle class="st15" cx="296.9" cy="319.8" r="4.6"/>
		<circle class="st15" cx="296.5" cy="311.5" r="1.5"/>
		<circle class="st15" cx="288.4" cy="319.7" r="1.5"/>
		<circle class="st15" cx="304.9" cy="319.5" r="1.5"/>
		<circle class="st15" cx="296.7" cy="328" r="1.5"/>
		<circle class="st15" cx="290.7" cy="314" r="1.5"/>
		<circle class="st15" cx="290.7" cy="325.5" r="1.5"/>
		<circle class="st15" cx="302.4" cy="313.8" r="1.5"/>
		<circle class="st15" cx="302.5" cy="325.5" r="1.5"/>
	</g>
</g>
<rect x="248.9" y="272.5" width="345.5" height="31.3"/>
<rect x="439.3" y="267.8" width="22" height="6.2"/>
<rect x="310.6" y="267.8" width="22" height="6.2"/>
<path class="st16" d="M497.1,286v22.7c0,1.6-1.3,2.8-2.8,2.8h-55.9c-1.6,0-2.8-1.3-2.8-2.8V286c0-1.6,1.3-2.8,2.8-2.8h55.9
	C495.9,283.2,497.1,284.4,497.1,286z"/>
<path class="st16" d="M421,316.9c-1-18.5-15.9-33.2-34.4-34h-0.2c-0.4,0-0.9,0-1.3,0s-0.9,0-1.3,0h-85.4c-0.4,0-0.9,0-1.3,0
	c-19.1,0-34.9,14.9-35.9,34h4.1c1.1-15.4,15-27.5,31.9-27.5s30.8,12.1,31.9,27.5h24.3c1.1-15.4,15-27.5,31.9-27.5
	s30.8,12.1,31.9,27.5H421z"/>
<rect x="248.9" y="143.6" class="st1" width="251.4" height="127.3"/>
<rect x="255.5" y="149.9" class="st17" width="237.7" height="13.9"/>
<rect x="255.5" y="170.1" class="st17" width="237.7" height="13.9"/>
<rect x="255.5" y="190.2" class="st17" width="237.7" height="13.9"/>
<rect x="255.5" y="210.4" class="st17" width="237.7" height="13.9"/>
<rect x="255.5" y="230.5" class="st17" width="237.7" height="13.9"/>
<rect x="255.5" y="250.6" class="st17" width="237.7" height="13.9"/>
<path class="st1" d="M515.3,186.4c-4.7,0-8.5,3.8-8.5,8.5V301l0,0c0,1.6,1.3,2.8,2.8,2.8h20.8c5.3-9.2,15-15,25.6-15.6
	c17.3-0.9,32.1,12.5,32.9,29.8h14l0,0c4.7,0,8.5-3.8,8.5-8.5V250l-46.8-63.8L515.3,186.4L515.3,186.4z"/>
<path class="st18" d="M561.9,200.6h-30.5l0,0c-3.8,0-6.9,3.1-6.9,6.9v30.7c0,6.8,5.5,12.2,12.3,12.2h48.3c0.7,0,1.4-0.2,2-0.7
	l0.6-0.5c0.9-0.6,1.4-1.6,1.4-2.7v-10c0-0.7-0.2-1.4-0.7-2l-23.8-32.5C564,201.1,563,200.6,561.9,200.6z"/>
<rect x="529.7" y="256.4" class="st17" width="10.7" height="6.3"/>
<rect x="522.6" y="255.1" class="st17" width="1.9" height="33"/>
<line class="st19" x1="574.1" y1="281.4" x2="589.3" y2="256.4"/>
<path d="M594.4,241.8v4.7l0,0c0,3.1-2.5,5.7-5.7,5.7h-2.5c-0.8,0-1.4-0.6-1.4-1.4v-13.2l0,0c0-0.8,0.6-1.4,1.4-1.4h2.5
	C591.9,236.1,594.4,238.6,594.4,241.8z"/>
<path class="st20" d="M611.4,286.2v17.6l0,0h-8.6c-3.1,0-5.7-2.5-5.7-5.7V292c0-3.1,2.5-5.7,5.7-5.7H611.4L611.4,286.2z"/>
<rect x="607.3" y="258.2" class="st11" width="4.2" height="19.8"/>
<path class="st21" d="M537.4,200.6h-6l0,0c-3.8,0-6.9,3.1-6.9,6.9v7.2l16.6,35.8h19.4L537.4,200.6z"/>
<polygon class="st21" points="577.6,250.6 554.5,200.6 548.7,200.6 571.8,250.6 "/>
</svg>
