<svg xmlns="http://www.w3.org/2000/svg" viewBox="0 0 255.67 209.42"><defs><style>.a{fill:#f77f00;}</style></defs><rect class="a" x="22.56" y="46.47" width="152.65" height="1.88" transform="translate(-10.78 47.48) rotate(-25.65)"/><line class="a" x1="30.08" y1="80.46" x2="167.7" y2="14.38"/><rect class="a" x="21.62" y="45.3" width="154.54" height="4.24" transform="translate(-10.78 47.48) rotate(-25.65)"/><rect class="a" x="22.56" y="46.24" width="152.65" height="2.35" transform="translate(-10.78 47.46) rotate(-25.64)"/><rect class="a" x="49.81" y="57.85" width="151.95" height="1.88" transform="translate(-13.05 60.24) rotate(-25.65)"/><line class="a" x1="57.29" y1="91.68" x2="194.27" y2="25.9"/><rect class="a" x="48.87" y="56.67" width="153.84" height="4.24" transform="translate(-13.05 60.25) rotate(-25.65)"/><rect class="a" x="49.81" y="57.6" width="151.95" height="2.35" transform="translate(-13.05 60.22) rotate(-25.64)"/><rect class="a" x="108.51" y="83.5" width="152.57" height="1.88" transform="translate(-18.34 88.38) rotate(-25.67)"/><line class="a" x1="116.04" y1="117.47" x2="253.55" y2="51.39"/><rect class="a" x="107.56" y="82.29" width="154.46" height="4.24" transform="translate(-18.33 88.38) rotate(-25.67)"/><rect class="a" x="108.5" y="83.26" width="152.57" height="2.35" transform="translate(-18.34 88.35) rotate(-25.66)"/><rect class="a" x="79.93" y="71.18" width="152.63" height="1.88" transform="translate(-15.82 74.74) rotate(-25.65)"/><line class="a" x1="87.46" y1="105.16" x2="225.04" y2="39.1"/><rect class="a" x="78.99" y="70.01" width="154.51" height="4.24" transform="translate(-15.83 74.74) rotate(-25.65)"/><rect class="a" x="79.93" y="70.94" width="152.63" height="2.35" transform="translate(-15.82 74.71) rotate(-25.64)"/><rect class="a" x="108.33" y="111.98" width="152.92" height="1.88" transform="translate(-30.77 92.14) rotate(-25.92)"/><line class="a" x1="253.55" y1="79.48" x2="116.04" y2="146.35"/><rect class="a" x="107.4" y="110.8" width="154.8" height="4.24" transform="translate(-30.77 92.18) rotate(-25.93)"/><rect class="a" x="108.34" y="111.73" width="152.92" height="2.35" transform="translate(-30.77 92.18) rotate(-25.93)"/><rect class="a" x="108.37" y="141.17" width="152.85" height="1.88" transform="translate(-43.5 94.95) rotate(-25.89)"/><line class="a" x1="253.55" y1="108.74" x2="116.04" y2="175.46"/><rect class="a" x="107.43" y="139.98" width="154.73" height="4.24" transform="translate(-43.49 94.91) rotate(-25.88)"/><rect class="a" x="108.37" y="140.91" width="152.85" height="2.35" transform="translate(-43.48 94.91) rotate(-25.88)"/><rect class="a" x="108.36" y="156.4" width="152.86" height="1.88" transform="translate(-50.16 96.48) rotate(-25.89)"/><line class="a" x1="253.55" y1="123.95" x2="116.04" y2="190.7"/><rect class="a" x="107.42" y="155.21" width="154.74" height="4.24" transform="translate(-50.15 96.48) rotate(-25.89)"/><rect class="a" x="108.36" y="156.13" width="152.86" height="2.35" transform="translate(-50.13 96.43) rotate(-25.88)"/><rect class="a" x="58.14" y="58.59" width="1.88" height="124.72" transform="translate(-75.45 125.65) rotate(-65.97)"/><line class="a" x1="116.04" y1="146.35" x2="2.12" y2="95.56"/><rect class="a" x="56.73" y="58.28" width="4.23" height="126.37" transform="translate(-76.08 125.22) rotate(-65.75)"/><rect class="a" x="57.9" y="58.6" width="2.35" height="124.72" transform="translate(-75.46 125.66) rotate(-65.97)"/><rect class="a" x="58.14" y="86.79" width="1.88" height="125.26" transform="translate(-101.38 141.02) rotate(-65.43)"/><line class="a" x1="116.04" y1="175.46" x2="2.12" y2="123.38"/><rect class="a" x="56.96" y="85.84" width="4.24" height="127.14" transform="translate(-101.37 141.01) rotate(-65.43)"/><rect class="a" x="57.9" y="86.79" width="2.35" height="125.26" transform="translate(-101.38 141.02) rotate(-65.43)"/><rect class="a" x="58.14" y="101.96" width="1.88" height="125.26" transform="translate(-115.17 149.88) rotate(-65.43)"/><polyline class="a" points="116.03 190.63 98.32 182.53 61.42 165.66 50.29 160.57 16.44 145.09 2.12 138.55"/><rect class="a" x="56.96" y="101.02" width="4.24" height="127.14" transform="translate(-115.17 149.88) rotate(-65.43)"/><rect class="a" x="57.91" y="101.96" width="2.35" height="125.26" transform="translate(-115.17 149.88) rotate(-65.43)"/><rect class="a" x="19.07" y="98.25" width="18.28" height="4.24" transform="translate(-40.24 21.73) rotate(-25.34)"/><rect class="a" x="20.01" y="99.2" width="16.4" height="2.35" transform="translate(-40.25 21.73) rotate(-25.34)"/><rect class="a" x="63.8" y="118.26" width="18.28" height="4.24" transform="translate(-44.5 42.8) rotate(-25.34)"/><rect class="a" x="64.75" y="119.21" width="16.4" height="2.35" transform="translate(-44.5 42.8) rotate(-25.34)"/><polygon class="a" points="48.17 118.15 48.17 104.94 20.4 92.25 20.4 103.65 16.16 103.65 16.16 85.65 52.41 102.22 52.41 118.15 48.17 118.15"/><polygon class="a" points="50.29 117.21 49.11 117.21 49.11 104.34 19.46 90.78 19.46 102.71 17.11 102.71 17.11 87.11 51.47 102.82 51.47 117.21 50.29 117.21"/><polygon class="a" points="96.49 139.49 96.7 127.13 65.56 112.89 65.56 124.12 61.33 124.12 61.33 106.3 100.99 124.43 100.73 139.56 96.49 139.49"/><polygon class="a" points="99.8 138.61 97.45 138.57 97.65 126.53 64.62 111.43 64.62 123.18 62.27 123.18 62.27 107.76 100.03 125.03 99.8 138.61"/><polygon class="a" points="96.18 168.08 96.42 155.52 65.56 141.52 65.56 151.91 61.33 151.91 61.33 134.95 100.7 152.81 100.42 168.16 96.18 168.08"/><polygon class="a" points="99.49 167.2 97.14 167.15 97.37 154.92 64.62 140.06 64.62 150.97 62.27 150.97 62.27 136.41 99.75 153.42 99.49 167.2"/><polygon class="a" points="48.65 146.34 48.65 133.8 20.4 120.89 20.4 132.09 16.16 132.09 16.16 114.29 52.88 131.08 52.88 146.34 48.65 146.34"/><polygon class="a" points="51.94 145.4 49.59 145.4 49.59 133.19 19.46 119.42 19.46 131.15 17.11 131.15 17.11 115.75 51.94 131.68 51.94 145.4"/><rect class="a" x="19.61" y="126.79" width="17.01" height="4.24" transform="translate(-52.32 24.32) rotate(-25.26)"/><rect class="a" x="20.55" y="127.73" width="15.13" height="2.35" transform="translate(-52.3 24.31) rotate(-25.25)"/><rect class="a" x="64.51" y="147.19" width="17.42" height="4.24" transform="translate(-57.92 47.05) rotate(-25.93)"/><rect class="a" x="65.46" y="148.12" width="15.53" height="2.35" transform="translate(-57.91 47.05) rotate(-25.93)"/><rect class="a" x="61.29" y="165.61" width="4.24" height="18.94"/><rect class="a" x="62.23" y="166.55" width="2.35" height="17.05"/><rect class="a" x="16.02" y="144.67" width="4.24" height="20.2"/><rect class="a" x="16.96" y="145.62" width="2.35" height="18.32"/><polygon class="a" points="48.14 179.09 48.17 159.63 52.41 159.63 52.38 176.35 63.43 181.31 81.69 172.77 83.48 176.6 63.46 185.97 48.14 179.09"/><polygon class="a" points="63.45 184.93 49.08 178.49 49.11 160.57 51.47 160.57 51.44 176.96 63.44 182.35 81.23 174.02 82.23 176.15 63.45 184.93"/><polygon class="a" points="96.2 200.63 96.2 181.59 100.44 181.59 100.44 197.87 115.99 204.75 131.21 197.29 131.34 181.35 135.57 181.38 135.43 199.95 116.08 209.42 96.2 200.63"/><polygon class="a" points="116.06 208.38 97.14 200.02 97.14 182.53 99.49 182.53 99.49 198.49 116.01 205.79 132.15 197.88 132.27 182.29 134.62 182.31 134.49 199.36 116.06 208.38"/><rect class="a" x="175.37" y="165" width="14.96" height="1.88" transform="translate(15.09 347.12) rotate(-89.43)"/><line class="a" x1="182.89" y1="158.45" x2="182.75" y2="173.41"/><rect class="a" x="174.4" y="163.83" width="16.85" height="4.24" transform="translate(15.1 347.14) rotate(-89.44)"/><rect class="a" x="175.41" y="164.8" width="14.96" height="2.35" transform="translate(15.09 347.2) rotate(-89.43)"/><polygon class="a" points="131.33 168 131.33 152.55 184.91 126.64 185.02 144.14 180.78 144.16 180.71 133.37 135.56 155.2 135.56 168 131.33 168"/><polygon class="a" points="134.62 167.06 132.27 167.06 132.27 153.14 183.97 128.13 184.07 143.2 181.72 143.22 181.64 131.88 134.62 154.61 134.62 167.06"/><polygon class="a" points="131.33 138.59 131.33 123.85 132.95 123.06 185.01 97.42 185.01 114.78 180.78 114.78 180.78 104.23 135.56 126.49 135.56 138.59 131.33 138.59"/><polygon class="a" points="134.62 137.64 132.27 137.64 132.27 124.44 133.36 123.91 184.07 98.94 184.07 113.84 181.72 113.84 181.72 102.72 134.62 125.91 134.62 137.64"/><rect class="a" x="241.93" y="129.1" width="1.88" height="15.87"/><rect class="a" x="240.76" y="128.16" width="4.24" height="17.75"/><rect class="a" x="241.7" y="129.1" width="2.35" height="15.87"/><polygon class="a" points="195.76 137.18 195.76 120.62 241.9 98.76 244.99 97.03 244.99 114.78 240.76 114.78 240.76 104.01 200 123.3 200 137.18 195.76 137.18"/><polygon class="a" points="199.06 136.24 196.7 136.24 196.7 121.22 242.3 99.61 244.05 98.63 244.05 113.84 241.7 113.84 241.7 102.52 199.06 122.71 199.06 136.24"/><polygon class="a" points="195.76 107.64 195.76 92.51 244.99 68.57 244.99 85.61 240.76 85.61 240.76 75.34 200 95.17 200 107.64 195.76 107.64"/><polygon class="a" points="199.06 106.7 196.7 106.7 196.7 93.1 244.05 70.08 244.05 84.67 241.7 84.67 241.7 73.84 199.06 94.58 199.06 106.7"/><rect class="a" x="172.96" y="102.11" width="4.24" height="18.33" transform="translate(14.92 243.12) rotate(-71.9)"/><rect class="a" x="173.92" y="103.08" width="2.35" height="16.45" transform="translate(14.88 243.12) rotate(-71.89)"/><polygon class="a" points="227 80.91 228.31 76.88 244.55 82.57 243.23 86.6 227 80.91"/><rect class="a" x="234.02" y="73.53" width="2.35" height="16.45" transform="translate(84.38 279.89) rotate(-71.89)"/><rect class="a" x="172.5" y="131.27" width="4.24" height="18.33" transform="translate(-13.11 262.78) rotate(-71.9)"/><rect class="a" x="173.46" y="132.23" width="2.35" height="16.45" transform="translate(-13.15 262.78) rotate(-71.89)"/><rect class="a" x="232.59" y="101.72" width="4.24" height="18.33" transform="translate(56.39 299.53) rotate(-71.9)"/><rect class="a" x="233.33" y="102.7" width="2.35" height="16.44" transform="translate(56.31 299.45) rotate(-71.93)"/><polygon class="a" points="163.43 168.86 164.84 164.87 182.62 171.12 195.76 164.71 195.76 150.28 200 150.28 200 167.35 182.88 175.71 163.43 168.86"/><polygon class="a" points="182.82 174.69 164.63 168.29 165.41 166.07 182.68 172.14 196.7 165.3 196.7 151.22 199.06 151.22 199.06 166.77 182.82 174.69"/><polygon class="a" points="113.92 208.03 113.92 118.87 0.42 69.98 2.09 66.09 118.15 116.08 118.15 208.03 113.92 208.03"/><polygon class="a" points="117.21 207.08 114.86 207.08 114.86 118.25 1.65 69.49 2.58 67.33 117.21 116.7 117.21 207.08"/><polygon class="a" points="0 158.1 0 67.08 139.69 0 255.67 49.99 255.67 141.13 242.93 146.64 224.54 139.65 226.04 135.69 242.82 142.07 251.44 138.35 251.44 52.78 139.79 4.66 4.24 69.75 4.24 155.36 18.1 161.59 37.03 152.29 38.9 156.09 18.18 166.27 0 158.1"/><polygon class="a" points="18.16 165.23 0.94 157.5 0.94 67.67 139.72 1.03 254.73 50.61 254.73 140.51 242.9 145.63 225.75 139.1 226.59 136.9 242.85 143.09 252.38 138.97 252.38 52.16 139.77 3.62 3.3 69.15 3.3 155.97 18.12 162.63 36.6 153.55 37.63 155.66 18.16 165.23"/></svg>