<svg xmlns="http://www.w3.org/2000/svg" viewBox="0 0 256 256"><defs><style>.a{fill:#fff;}</style></defs><path class="a" d="M218.5,37.49A128,128,0,1,0,256,128,128,128,0,0,0,218.5,37.49ZM187.32,87.05c-1.92,20.24-10.26,69.36-14.5,92-1.78,9.59-5.32,12.8-8.74,13.12-7.44.68-13.08-4.91-20.28-9.63-11.26-7.39-17.62-12-28.56-19.19C102.6,155.05,110.8,150.47,118,143c1.88-2,34.64-31.74,35.26-34.45a2.58,2.58,0,0,0-.6-2.26A2.94,2.94,0,0,0,150,106q-1.71.39-54,35.69-7.65,5.26-13.88,5.13c-4.56-.1-13.36-2.59-19.9-4.71-8-2.61-14.38-4-13.82-8.41q.42-3.45,9.52-7.07,56-24.39,74.64-32.15c35.56-14.79,42.94-17.36,47.76-17.45a8.47,8.47,0,0,1,5,1.5A5.51,5.51,0,0,1,187.12,82,22.69,22.69,0,0,1,187.32,87.05Z"/></svg>