<svg xmlns="http://www.w3.org/2000/svg" xmlns:xlink="http://www.w3.org/1999/xlink" viewBox="0 0 256 257.15"><defs><style>.a{fill:url(#a);}.b{fill:#fff;}</style><linearGradient id="a" x1="-464.68" y1="547.75" x2="-464.68" y2="548.75" gradientTransform="matrix(256, 0, 0, -257.15, 119085, 141110.57)" gradientUnits="userSpaceOnUse"><stop offset="0" stop-color="#f9f9f9"/><stop offset="1" stop-color="#fff"/></linearGradient></defs><path class="a" d="M1.07,127.42a127.2,127.2,0,0,0,17,63.7h0L0,257.15l67.57-17.72a127.44,127.44,0,0,0,60.91,15.51h.06c70.24,0,127.43-57.17,127.46-127.42h0a126.67,126.67,0,0,0-37.3-90.15h0A126.67,126.67,0,0,0,128.54,0h0C58.28,0,1.1,57.16,1.07,127.42Zm40.24,60.37-2.52-4a105.6,105.6,0,0,1-16.2-56.37h0a106.08,106.08,0,0,1,106-105.9h0a105.25,105.25,0,0,1,74.9,31.06h0a105.27,105.27,0,0,1,31,74.93h0A106.08,106.08,0,0,1,128.54,233.42h0a105.8,105.8,0,0,1-53.92-14.76h0l-3.87-2.3L30.6,226.87Z" transform="translate(0 0)"/><path class="b" d="M96.68,74.15c-2.39-5.31-4.9-5.41-7.17-5.51-1.86-.07-4-.07-6.1-.07a11.67,11.67,0,0,0-8.49,4C72,75.74,63.77,83.45,63.77,99.12s11.41,30.81,13,32.94,22,35.3,54.41,48.07c26.9,10.61,32.38,8.5,38.22,8s18.84-7.71,21.49-15.14,2.66-13.81,1.86-15.14-2.92-2.13-6.1-3.72-18.85-9.3-21.77-10.36-5-1.59-7.16,1.59-8.23,10.36-10.09,12.49-3.71,2.39-6.9.8-13.44-5-25.61-15.81A95.88,95.88,0,0,1,97.4,120.75c-1.85-3.18-.2-4.91,1.4-6.49,1.43-1.43,3.19-3.72,4.78-5.58a21.82,21.82,0,0,0,3.18-5.31,5.89,5.89,0,0,0-.26-5.58c-.8-1.59-7-17.34-9.82-23.64" transform="translate(0 0)"/></svg>